<mxfile host="app.diagrams.net" modified="2023-11-22T12:10:41.986Z" agent="Mozilla/5.0 (Windows NT 10.0; Win64; x64) AppleWebKit/537.36 (KHTML, like Gecko) Chrome/119.0.0.0 Safari/537.36" etag="Y28oKnkK9X74B5cq1iD7" version="22.1.3" type="github">
  <diagram name="Halaman-1" id="vH6bzz5zNF5C6SyV6egI">
    <mxGraphModel dx="1050" dy="603" grid="1" gridSize="10" guides="1" tooltips="1" connect="1" arrows="1" fold="1" page="1" pageScale="1" pageWidth="827" pageHeight="1169" math="0" shadow="0">
      <root>
        <mxCell id="0" />
        <mxCell id="1" parent="0" />
        <mxCell id="tvmGuL7JpprmccJYUkbG-1" value="" style="ellipse;html=1;shape=startState;fillColor=#000000;strokeColor=#ff0000;" vertex="1" parent="1">
          <mxGeometry x="140" y="110" width="30" height="30" as="geometry" />
        </mxCell>
        <mxCell id="tvmGuL7JpprmccJYUkbG-2" value="" style="edgeStyle=orthogonalEdgeStyle;html=1;verticalAlign=bottom;endArrow=open;endSize=8;strokeColor=#ff0000;rounded=0;" edge="1" source="tvmGuL7JpprmccJYUkbG-1" parent="1">
          <mxGeometry relative="1" as="geometry">
            <mxPoint x="155" y="200" as="targetPoint" />
          </mxGeometry>
        </mxCell>
        <mxCell id="tvmGuL7JpprmccJYUkbG-8" style="edgeStyle=orthogonalEdgeStyle;rounded=0;orthogonalLoop=1;jettySize=auto;html=1;exitX=1;exitY=0.5;exitDx=0;exitDy=0;entryX=0;entryY=0.5;entryDx=0;entryDy=0;" edge="1" parent="1" source="tvmGuL7JpprmccJYUkbG-3" target="tvmGuL7JpprmccJYUkbG-4">
          <mxGeometry relative="1" as="geometry" />
        </mxCell>
        <mxCell id="tvmGuL7JpprmccJYUkbG-3" value="Login" style="rounded=1;whiteSpace=wrap;html=1;" vertex="1" parent="1">
          <mxGeometry x="70" y="200" width="175" height="60" as="geometry" />
        </mxCell>
        <mxCell id="tvmGuL7JpprmccJYUkbG-9" style="edgeStyle=orthogonalEdgeStyle;rounded=0;orthogonalLoop=1;jettySize=auto;html=1;exitX=0.5;exitY=1;exitDx=0;exitDy=0;entryX=0.5;entryY=0;entryDx=0;entryDy=0;" edge="1" parent="1" source="tvmGuL7JpprmccJYUkbG-4" target="tvmGuL7JpprmccJYUkbG-5">
          <mxGeometry relative="1" as="geometry" />
        </mxCell>
        <mxCell id="tvmGuL7JpprmccJYUkbG-4" value="Menampilkan Halaman Utama" style="rounded=1;whiteSpace=wrap;html=1;" vertex="1" parent="1">
          <mxGeometry x="520" y="200" width="175" height="60" as="geometry" />
        </mxCell>
        <mxCell id="tvmGuL7JpprmccJYUkbG-10" style="edgeStyle=orthogonalEdgeStyle;rounded=0;orthogonalLoop=1;jettySize=auto;html=1;entryX=0;entryY=0.5;entryDx=0;entryDy=0;" edge="1" parent="1" source="tvmGuL7JpprmccJYUkbG-5" target="tvmGuL7JpprmccJYUkbG-6">
          <mxGeometry relative="1" as="geometry" />
        </mxCell>
        <mxCell id="tvmGuL7JpprmccJYUkbG-5" value="Klik Check Out" style="rounded=1;whiteSpace=wrap;html=1;" vertex="1" parent="1">
          <mxGeometry x="70" y="360" width="175" height="60" as="geometry" />
        </mxCell>
        <mxCell id="tvmGuL7JpprmccJYUkbG-11" style="edgeStyle=orthogonalEdgeStyle;rounded=0;orthogonalLoop=1;jettySize=auto;html=1;entryX=0.5;entryY=0;entryDx=0;entryDy=0;" edge="1" parent="1" source="tvmGuL7JpprmccJYUkbG-6" target="tvmGuL7JpprmccJYUkbG-7">
          <mxGeometry relative="1" as="geometry" />
        </mxCell>
        <mxCell id="tvmGuL7JpprmccJYUkbG-6" value="Check Out Berhasil" style="rounded=1;whiteSpace=wrap;html=1;" vertex="1" parent="1">
          <mxGeometry x="520" y="360" width="175" height="60" as="geometry" />
        </mxCell>
        <mxCell id="tvmGuL7JpprmccJYUkbG-7" value="" style="ellipse;html=1;shape=endState;fillColor=#000000;strokeColor=#ff0000;" vertex="1" parent="1">
          <mxGeometry x="593" y="470" width="30" height="30" as="geometry" />
        </mxCell>
      </root>
    </mxGraphModel>
  </diagram>
</mxfile>
